<svg xmlns="http://www.w3.org/2000/svg" width="125.137" height="88.932" viewBox="0 0 125.137 88.932">
  <g id="Group_761" data-name="Group 761" transform="translate(-1084.5 -1032.254)">
    <g id="Group_679" data-name="Group 679" transform="translate(1086 1033.754)">
      <g id="Group_678" data-name="Group 678" transform="translate(0 0)">
        <path id="Path_2851" data-name="Path 2851" d="M23,154.7V137.6c0-23.979,7.85-51.269,24.807-51.269h74.844a18.1,18.1,0,0,1,18.1,18.1v50.589" transform="translate(-20.721 -86.326)" fill="none" stroke="#fff" stroke-linecap="round" stroke-linejoin="round" stroke-miterlimit="10" stroke-width="3"/>
        <path id="Path_2852" data-name="Path 2852" d="M27.252,365.1a3.569,3.569,0,0,1-3.569,3.569H17.569A3.569,3.569,0,0,1,14,365.1v-5.188a3.569,3.569,0,0,1,3.569-3.569h6.114a3.569,3.569,0,0,1,3.569,3.569Z" transform="translate(-14 -287.969)" fill="none" stroke="#fff" stroke-linecap="round" stroke-linejoin="round" stroke-miterlimit="10" stroke-width="3"/>
        <path id="Path_2853" data-name="Path 2853" d="M457.252,365.1a3.569,3.569,0,0,1-3.569,3.569h-6.114A3.569,3.569,0,0,1,444,365.1v-5.188a3.569,3.569,0,0,1,3.569-3.569h6.114a3.569,3.569,0,0,1,3.569,3.569Z" transform="translate(-335.115 -287.969)" fill="none" stroke="#fff" stroke-linecap="round" stroke-linejoin="round" stroke-miterlimit="10" stroke-width="3"/>
        <g id="Group_676" data-name="Group 676" transform="translate(21.743 63.142)">
          <circle id="Ellipse_2895" data-name="Ellipse 2895" cx="11.395" cy="11.395" r="11.395" fill="none" stroke="#fff" stroke-linecap="round" stroke-linejoin="round" stroke-miterlimit="10" stroke-width="3"/>
          <circle id="Ellipse_2896" data-name="Ellipse 2896" cx="6.051" cy="6.051" r="6.051" transform="translate(5.343 5.343)" fill="none" stroke="#2679fd" stroke-linejoin="round" stroke-miterlimit="10" stroke-width="3"/>
        </g>
        <g id="Group_677" data-name="Group 677" transform="translate(77.635 63.142)">
          <circle id="Ellipse_2897" data-name="Ellipse 2897" cx="11.395" cy="11.395" r="11.395" fill="none" stroke="#fff" stroke-linecap="round" stroke-linejoin="round" stroke-miterlimit="10" stroke-width="3"/>
          <circle id="Ellipse_2898" data-name="Ellipse 2898" cx="6.051" cy="6.051" r="6.051" transform="translate(5.343 5.343)" fill="none" stroke="#2679fd" stroke-linejoin="round" stroke-miterlimit="10" stroke-width="3"/>
        </g>
        <path id="Path_2854" data-name="Path 2854" d="M334.174,153.686V143.575H318.4v10.111H308.288v15.775H318.4v10.11h15.775v-10.11h10.11V153.686Z" transform="translate(-233.768 -129.078)" fill="none" stroke="#2679fd" stroke-linejoin="round" stroke-miterlimit="10" stroke-width="3"/>
        <path id="Path_2855" data-name="Path 2855" d="M117.093,268.442a2.965,2.965,0,0,1-2.965,2.965h-5.58a2.965,2.965,0,0,1-2.965-2.965h0a2.965,2.965,0,0,1,2.965-2.965h5.58a2.965,2.965,0,0,1,2.965,2.965Z" transform="translate(-82.392 -220.112)" fill="none" stroke="#fff" stroke-linecap="round" stroke-linejoin="round" stroke-miterlimit="10" stroke-width="3"/>
      </g>
      <path id="Path_2856" data-name="Path 2856" d="M220.255,148.258a5.064,5.064,0,0,1-5.064,5.064H208.7a5.065,5.065,0,0,1-5.064-5.064V127.125a5.064,5.064,0,0,1,5.064-5.064h6.491a5.064,5.064,0,0,1,5.064,5.064Z" transform="translate(-155.615 -113.012)" fill="none" stroke="#fff" stroke-linecap="round" stroke-linejoin="round" stroke-miterlimit="10" stroke-width="3"/>
      <path id="Path_2857" data-name="Path 2857" d="M57.485,122.061H34.254c-7.489,10.788-9.666,31.416-9.666,31.416l32.9-.155a5.065,5.065,0,0,0,5.064-5.064V127.125A5.064,5.064,0,0,0,57.485,122.061Z" transform="translate(-21.907 -113.012)" fill="none" stroke="#fff" stroke-linecap="round" stroke-linejoin="round" stroke-miterlimit="10" stroke-width="3"/>
    </g>
    <line id="Line_286" data-name="Line 286" x2="8.519" transform="translate(1099.41 1113.291)" fill="none" stroke="#fff" stroke-linecap="round" stroke-linejoin="round" stroke-miterlimit="10" stroke-width="2"/>
    <line id="Line_287" data-name="Line 287" x2="32.193" transform="translate(1131.5 1113.291)" fill="none" stroke="#fff" stroke-linecap="round" stroke-linejoin="round" stroke-miterlimit="10" stroke-width="2"/>
    <line id="Line_288" data-name="Line 288" x2="7.85" transform="translate(1187.193 1112.612)" fill="none" stroke="#fff" stroke-linecap="round" stroke-linejoin="round" stroke-miterlimit="10" stroke-width="2"/>
  </g>
</svg>
