<svg xmlns="http://www.w3.org/2000/svg" width="86.603" height="86.603" viewBox="0 0 86.603 86.603">
  <g id="Covid-19__Outline-28" data-name="Covid-19_ Outline-28" transform="translate(1.5 1.5)">
    <line id="Line_326" data-name="Line 326" x1="12.077" y2="12.077" transform="translate(12.316 59.354)" fill="none" stroke="#2679fd" stroke-linejoin="round" stroke-miterlimit="10" stroke-width="3"/>
    <line id="Line_327" data-name="Line 327" x1="21.67" y2="21.67" transform="translate(49.761 12.315)" fill="none" stroke="#2679fd" stroke-linejoin="round" stroke-miterlimit="10" stroke-width="3"/>
    <g id="Group_700" data-name="Group 700" transform="translate(5.822 5.756)">
      <g id="Group_699" data-name="Group 699" transform="translate(0 0)">
        <path id="Path_2968" data-name="Path 2968" d="M55.532,77.928a76.331,76.331,0,0,0-3.422-9.434,25.243,25.243,0,0,0-7.176-7.926,43.346,43.346,0,0,1,14.8-14.754l11.833,12.1" transform="translate(-44.934 -45.814)" fill="none" stroke="#fff" stroke-linecap="round" stroke-linejoin="round" stroke-miterlimit="10" stroke-width="3"/>
        <path id="Path_2969" data-name="Path 2969" d="M235.556,190.5l14.994,14.294s4.945,5.133-1.489,9.176c-5.938-5.5-9.4-8.75-9.4-8.75s8.839,8.249,10.2,9.782c2.284,2.57-1.688,8.323-4.59,5.538S234.459,210.5,234.459,210.5s9.3,8.414,10.815,10.032-2.647,8.007-6.187,4.641c-4.137-3.934-9.831-8.681-9.831-8.681l10.5,9.25s-1.381,6.824-6.805,3.619c-1.481-.979-3.678-2.548-6.172-4.488" transform="translate(-195.589 -165.684)" fill="none" stroke="#fff" stroke-linecap="round" stroke-linejoin="round" stroke-miterlimit="10" stroke-width="3"/>
        <path id="Path_2970" data-name="Path 2970" d="M164.9,58.218s-1.779,1.376-9.853,2.3c-6.643.761-11.732-.314-16.273,4.615s-9.335,9.974-9.335,9.974,4.794,7.506,11.227,2.9a40.222,40.222,0,0,0,4.43-3.563,12.347,12.347,0,0,0,9.951.882c10.691,10.5,14.861,14.439,14.861,14.439a14.285,14.285,0,0,0,5.7-8.1,17.679,17.679,0,0,1,4.155-7.793l8.21-6.545a48.418,48.418,0,0,0-6.458-9.112,44.056,44.056,0,0,0-7.792-6.553Z" transform="translate(-114.947 -50.662)" fill="none" stroke="#fff" stroke-linecap="round" stroke-linejoin="round" stroke-miterlimit="10" stroke-width="3"/>
        <path id="Path_2971" data-name="Path 2971" d="M191.276,345.76c2.029-2.388,3.176-4.794,1.063-6.845s-4.094-2.681-7.651,2.075C181.649,344.933,187.678,349.994,191.276,345.76Z" transform="translate(-160.034 -287.369)" fill="none" stroke="#fff" stroke-linecap="round" stroke-linejoin="round" stroke-miterlimit="10" stroke-width="3"/>
        <path id="Path_2972" data-name="Path 2972" d="M96.525,235.948c2.225-2.206,3.573-4.505,1.643-6.729s-3.851-3.02-7.8,1.415C87,234.3,92.579,239.86,96.525,235.948Z" transform="translate(-81.718 -196.278)" fill="none" stroke="#fff" stroke-linecap="round" stroke-linejoin="round" stroke-miterlimit="10" stroke-width="3"/>
        <path id="Path_2973" data-name="Path 2973" d="M153.16,313.616c3.277-3.059,4.534-5.4,2.588-7.613s-4.734-2.6-8.781,2.34C143.628,312.036,149.1,317.407,153.16,313.616Z" transform="translate(-128.612 -260.088)" fill="none" stroke="#fff" stroke-linecap="round" stroke-linejoin="round" stroke-miterlimit="10" stroke-width="3"/>
        <path id="Path_2974" data-name="Path 2974" d="M121,276.138c3.277-3.059,4.534-5.4,2.588-7.613s-4.734-2.6-8.781,2.34C111.465,274.558,116.936,279.93,121,276.138Z" transform="translate(-101.965 -229.037)" fill="none" stroke="#fff" stroke-linecap="round" stroke-linejoin="round" stroke-miterlimit="10" stroke-width="3"/>
      </g>
    </g>
    <circle id="Ellipse_2899" data-name="Ellipse 2899" cx="41.802" cy="41.802" r="41.802" transform="translate(0 0)" fill="none" stroke="#2679fd" stroke-linejoin="round" stroke-miterlimit="10" stroke-width="3"/>
  </g>
</svg>
