<svg xmlns="http://www.w3.org/2000/svg" width="70.305" height="89.026" viewBox="0 0 70.305 89.026">
  <g id="Group_704" data-name="Group 704" transform="translate(-395.181 -985.92)">
    <path id="Path_2738" data-name="Path 2738" d="M317.053,408.882H325.9c7.8,0,14.132,7.348,14.132,16.413" transform="translate(123.952 648.151)" fill="none" stroke="#fff" stroke-linecap="round" stroke-linejoin="round" stroke-miterlimit="10" stroke-width="3"/>
    <path id="Path_2739" data-name="Path 2739" d="M64.88,425.294c0-9.065,6.327-16.413,14.132-16.413h8.51" transform="translate(332.004 648.152)" fill="none" stroke="#fff" stroke-linecap="round" stroke-linejoin="round" stroke-miterlimit="10" stroke-width="3"/>
    <path id="Path_2740" data-name="Path 2740" d="M217.367,394.173v1.89a10.57,10.57,0,0,1-10.57,10.57h0a10.57,10.57,0,0,1-10.57-10.57v-2.276" transform="translate(223.639 660.605)" fill="none" stroke="#2679fd" stroke-linecap="round" stroke-linejoin="round" stroke-miterlimit="10" stroke-width="3"/>
    <path id="Path_2741" data-name="Path 2741" d="M155.869,191.271V202.29a26.244,26.244,0,0,1-26.244,26.244h-1.438a26.244,26.244,0,0,1-26.244-26.244V191.271" transform="translate(301.426 827.689)" fill="none" stroke="#fff" stroke-linecap="round" stroke-linejoin="round" stroke-miterlimit="10" stroke-width="3"/>
    <path id="Path_2742" data-name="Path 2742" d="M70.406,184.293s-6.688-.467-6.688,5.482c0,7.844,6.69,8.29,6.69,8.29Z" transform="translate(332.963 833.454)" fill="none" stroke="#fff" stroke-linecap="round" stroke-linejoin="round" stroke-miterlimit="10" stroke-width="3"/>
    <path id="Path_2743" data-name="Path 2743" d="M410.165,184.293s6.688-.467,6.688,5.482c0,7.844-6.69,8.29-6.69,8.29Z" transform="translate(47.133 833.454)" fill="none" stroke="#fff" stroke-linecap="round" stroke-linejoin="round" stroke-miterlimit="10" stroke-width="3"/>
    <ellipse id="Ellipse_2854" data-name="Ellipse 2854" cx="3.401" cy="3.401" rx="3.401" ry="3.401" transform="translate(413.692 1016.347)" fill="#fff"/>
    <ellipse id="Ellipse_2855" data-name="Ellipse 2855" cx="3.401" cy="3.401" rx="3.401" ry="3.401" transform="translate(440.169 1016.347)" fill="#fff"/>
    <path id="Path_2744" data-name="Path 2744" d="M117.753,32a73.831,73.831,0,0,0,18.9-2.554c1.4,6.823,7.542,11.885,7.542,11.885l2.205.184S151.52,11,117.228,11,88.06,41.511,88.06,41.511l2.205-.184s6.143-5.061,7.542-11.885A73.831,73.831,0,0,0,116.7,32Z" transform="translate(313.104 976.42)" fill="none" stroke="#fff" stroke-linecap="round" stroke-linejoin="round" stroke-miterlimit="10" stroke-width="3"/>
    <path id="Path_2745" data-name="Path 2745" d="M187.627,299.352s-4.789-.718-18.471-.718h-.205c-13.682,0-18.471.718-18.471.718" transform="translate(261.382 739.11)" fill="none" stroke="#2679fd" stroke-linecap="round" stroke-linejoin="round" stroke-miterlimit="10" stroke-width="3"/>
    <path id="Path_2746" data-name="Path 2746" d="M188.391,335.193s-3.626,3.378-18.265,3.378h-.205c-14.64,0-18.266-3.378-18.266-3.378" transform="translate(260.412 708.948)" fill="none" stroke="#2679fd" stroke-linecap="round" stroke-linejoin="round" stroke-miterlimit="10" stroke-width="3"/>
    <path id="Path_2747" data-name="Path 2747" d="M169,275.17c18.586,0,18.586-7.286,18.586-7.286v-13.34c0-4.823-18.586-5-18.586-5h0s-18.586.174-18.586,5v13.34s0,7.286,18.586,7.286Z" transform="translate(261.438 779.609)" fill="none" stroke="#fff" stroke-linecap="round" stroke-linejoin="round" stroke-miterlimit="10" stroke-width="3"/>
    <line id="Line_214" data-name="Line 214" x1="8.595" y1="15.77" transform="translate(403.369 1017.746)" fill="none" stroke="#fff" stroke-linecap="round" stroke-linejoin="round" stroke-miterlimit="10" stroke-width="3"/>
    <line id="Line_215" data-name="Line 215" y1="15.77" x2="8.595" transform="translate(449.021 1017.746)" fill="none" stroke="#fff" stroke-linecap="round" stroke-linejoin="round" stroke-miterlimit="10" stroke-width="3"/>
  </g>
</svg>
