<svg xmlns="http://www.w3.org/2000/svg" width="84.221" height="83.494" viewBox="0 0 84.221 83.494">
  <g id="Group_705" data-name="Group 705" transform="translate(-740.307 -997.913)">
    <path id="Path_2975" data-name="Path 2975" d="M63.259,55.861a19.082,19.082,0,0,1-3.892-11.473c0-8.931,5.149-8.95,5.149-8.95V27.755S51.732,29.478,51.732,44.387a28.428,28.428,0,0,0,5.44,16.546" transform="translate(696.654 973.899)" fill="none" stroke="#fff" stroke-linejoin="round" stroke-miterlimit="10" stroke-width="3"/>
    <path id="Path_2976" data-name="Path 2976" d="M138.1,23.094a3.35,3.35,0,0,1-3.35,3.35h-3.359a3.35,3.35,0,0,1-3.35-3.35V17.726a3.35,3.35,0,0,1,3.35-3.35h3.359a3.35,3.35,0,0,1,3.35,3.35Z" transform="translate(633.127 985.037)" fill="none" stroke="#2679fd" stroke-linejoin="round" stroke-miterlimit="10" stroke-width="3"/>
    <path id="Path_2977" data-name="Path 2977" d="M383.571,56.156a19.119,19.119,0,0,0,4.118-11.769c0-8.931-5.149-8.95-5.149-8.95V27.755s12.783,1.723,12.783,16.632a28.428,28.428,0,0,1-5.44,16.546" transform="translate(421.263 973.899)" fill="none" stroke="#fff" stroke-linejoin="round" stroke-miterlimit="10" stroke-width="3"/>
    <path id="Path_2978" data-name="Path 2978" d="M105.88,209.053c14.187,0,24.821-7.234,30.125-14.767l-9.272-8.013c-3.921,6.022-11.166,10.275-20.852,10.275h.148c-9.686,0-16.932-4.254-20.852-10.275L75.9,194.287c5.3,7.533,15.938,14.767,30.125,14.767Z" transform="translate(676.532 841.935)" fill="none" stroke="#2679fd" stroke-linejoin="round" stroke-miterlimit="10" stroke-width="3"/>
    <path id="Path_2979" data-name="Path 2979" d="M322.491,23.094a3.35,3.35,0,0,0,3.35,3.35H329.2a3.35,3.35,0,0,0,3.35-3.35V17.726a3.35,3.35,0,0,0-3.35-3.35h-3.359a3.35,3.35,0,0,0-3.35,3.35Z" transform="translate(471.252 985.037)" fill="none" stroke="#2679fd" stroke-linejoin="round" stroke-miterlimit="10" stroke-width="3"/>
    <path id="Path_2980" data-name="Path 2980" d="M57.519,327.816s1.343,10.692-8.041,12.415c-11.67,2.142-21.861-6.049-25.965-1.777-2.066,2.151-.516,5.807,8.645,5.807H66.23c7.706,0,11.242-3.018,11.242-3.018a11.914,11.914,0,0,0,6.673,2.4c-2.671,5.033-8.586,7.536-19.535,7.536H30.549c-13.488,0-20.821-9.58-14.829-17.189,9.687-12.3,34.763,10.5,34.763-6.169v-5.561h7.036Z" transform="translate(728.391 728.733)" fill="none" stroke="#fff" stroke-linejoin="round" stroke-miterlimit="10" stroke-width="3"/>
    <circle id="Ellipse_2900" data-name="Ellipse 2900" cx="10.491" cy="10.491" r="10.491" transform="translate(802.045 1051.389)" fill="none" stroke="#2679fd" stroke-linejoin="round" stroke-miterlimit="10" stroke-width="3"/>
    <circle id="Ellipse_2901" data-name="Ellipse 2901" cx="4.963" cy="4.963" r="4.963" transform="translate(807.573 1056.917)" fill="none" stroke="#fff" stroke-linejoin="round" stroke-miterlimit="10" stroke-width="3"/>
  </g>
</svg>
