<svg xmlns="http://www.w3.org/2000/svg" width="112.746" height="115.716" viewBox="0 0 112.746 115.716">
  <g id="Virus01" transform="translate(-116.27 -137.76)">
    <circle id="Ellipse_2456" data-name="Ellipse 2456" cx="40.51" cy="40.51" r="40.51" transform="translate(132.117 154.193)" fill="#30418c"/>
    <g id="Group_198" data-name="Group 198" transform="translate(163.637 137.76)">
      <circle id="Ellipse_2457" data-name="Ellipse 2457" cx="5.459" cy="5.459" r="5.459" fill="#30418c"/>
      <rect id="Rectangle_592" data-name="Rectangle 592" width="1.991" height="18.799" transform="translate(4.463 5.459)" fill="#30418c"/>
    </g>
    <g id="Group_199" data-name="Group 199" transform="translate(189.385 220.196)">
      <circle id="Ellipse_2458" data-name="Ellipse 2458" cx="4.866" cy="4.866" r="4.866" transform="translate(6.419 8.69)" fill="#30418c"/>
      <rect id="Rectangle_593" data-name="Rectangle 593" width="1.776" height="16.758" transform="translate(11.966 12.989) rotate(140.811)" fill="#30418c"/>
    </g>
    <g id="Group_200" data-name="Group 200" transform="translate(193.675 144.373)">
      <circle id="Ellipse_2459" data-name="Ellipse 2459" cx="4.626" cy="4.626" r="4.626" transform="translate(2.288 0)" fill="#30418c"/>
      <rect id="Rectangle_594" data-name="Rectangle 594" width="1.688" height="15.924" transform="translate(6.133 4.305) rotate(22.649)" fill="#30418c"/>
    </g>
    <g id="Group_201" data-name="Group 201" transform="translate(116.27 188.28)">
      <circle id="Ellipse_2460" data-name="Ellipse 2460" cx="4.287" cy="4.287" r="4.287" fill="#30418c"/>
      <rect id="Rectangle_595" data-name="Rectangle 595" width="1.564" height="14.763" transform="matrix(0.143, -0.99, 0.99, 0.143, 4.168, 5.058)" fill="#30418c"/>
    </g>
    <g id="Group_202" data-name="Group 202" transform="translate(124.275 150.365)">
      <circle id="Ellipse_2461" data-name="Ellipse 2461" cx="6.808" cy="6.808" r="6.808" fill="#30418c"/>
      <rect id="Rectangle_596" data-name="Rectangle 596" width="1.991" height="18.799" transform="matrix(0.689, -0.724, 0.724, 0.689, 6.123, 7.534)" fill="#30418c"/>
    </g>
    <g id="Group_205" data-name="Group 205" transform="translate(148.981 179.824)">
      <g id="Group_204" data-name="Group 204">
        <g id="Group_203" data-name="Group 203">
          <circle id="Ellipse_2462" data-name="Ellipse 2462" cx="6.808" cy="6.808" r="6.808" fill="#97c6f2"/>
        </g>
      </g>
    </g>
    <g id="Group_208" data-name="Group 208" transform="translate(154.485 157.173)">
      <g id="Group_207" data-name="Group 207">
        <g id="Group_206" data-name="Group 206">
          <circle id="Ellipse_2463" data-name="Ellipse 2463" cx="6.808" cy="6.808" r="6.808" fill="#97c6f2"/>
        </g>
      </g>
    </g>
    <g id="Group_211" data-name="Group 211" transform="translate(195.377 188.28)">
      <g id="Group_210" data-name="Group 210">
        <g id="Group_209" data-name="Group 209">
          <circle id="Ellipse_2464" data-name="Ellipse 2464" cx="6.808" cy="6.808" r="6.808" fill="#97c6f2"/>
        </g>
      </g>
    </g>
    <g id="Group_214" data-name="Group 214" transform="translate(176.674 171.639)">
      <g id="Group_213" data-name="Group 213">
        <g id="Group_212" data-name="Group 212">
          <circle id="Ellipse_2465" data-name="Ellipse 2465" cx="6.808" cy="6.808" r="6.808" fill="#97c6f2"/>
        </g>
      </g>
    </g>
    <g id="Group_217" data-name="Group 217" transform="translate(176.674 202.736)">
      <g id="Group_216" data-name="Group 216" transform="translate(0 0)">
        <g id="Group_215" data-name="Group 215">
          <circle id="Ellipse_2466" data-name="Ellipse 2466" cx="4.693" cy="4.693" r="4.693" fill="#97c6f2"/>
        </g>
      </g>
    </g>
    <g id="Group_220" data-name="Group 220" transform="translate(153.211 217.1)">
      <g id="Group_219" data-name="Group 219" transform="translate(0 0)">
        <g id="Group_218" data-name="Group 218">
          <circle id="Ellipse_2467" data-name="Ellipse 2467" cx="4.693" cy="4.693" r="4.693" fill="#97c6f2"/>
        </g>
      </g>
    </g>
    <g id="Group_221" data-name="Group 221" transform="translate(119.296 216.43)">
      <circle id="Ellipse_2468" data-name="Ellipse 2468" cx="6.808" cy="6.808" r="6.808" transform="translate(0 3.939)" fill="#30418c"/>
      <rect id="Rectangle_597" data-name="Rectangle 597" width="1.991" height="18.799" transform="translate(7.332 11.591) rotate(-121.769)" fill="#30418c"/>
    </g>
    <g id="Group_222" data-name="Group 222" transform="translate(164.393 227.859)">
      <circle id="Ellipse_2469" data-name="Ellipse 2469" cx="6.808" cy="6.808" r="6.808" transform="translate(0 12.002)" fill="#30418c"/>
      <rect id="Rectangle_598" data-name="Rectangle 598" width="1.991" height="18.799" transform="translate(7.803 18.824) rotate(-179.226)" fill="#30418c"/>
    </g>
    <g id="Group_223" data-name="Group 223" transform="translate(206.649 209.603)">
      <circle id="Ellipse_2470" data-name="Ellipse 2470" cx="6.808" cy="6.808" r="6.808" transform="translate(8.752 5.382)" fill="#30418c"/>
      <rect id="Rectangle_599" data-name="Rectangle 599" width="1.991" height="18.799" transform="translate(16.163 11.388) rotate(127.287)" fill="#30418c"/>
    </g>
    <g id="Group_224" data-name="Group 224" transform="translate(202.422 167.695)">
      <circle id="Ellipse_2471" data-name="Ellipse 2471" cx="6.808" cy="6.808" r="6.808" transform="translate(11.358)" fill="#30418c"/>
      <rect id="Rectangle_600" data-name="Rectangle 600" width="1.991" height="18.799" transform="translate(17.847 5.867) rotate(71.694)" fill="#30418c"/>
    </g>
  </g>
</svg>
